<?xml version="1.0" encoding="UTF-8"?>
<svg id="Layer_1" data-name="Layer 1" xmlns="http://www.w3.org/2000/svg" viewBox="0 0 841.89 841.89">
  <polygon points="799.86 86.76 754.57 41.47 420.94 375.09 87.32 41.47 42.03 86.76 375.65 420.38 42.03 754.01 87.32 799.3 420.94 465.68 754.57 799.3 799.86 754.01 466.24 420.38 799.86 86.76" fill="#e6a538"/>
  <polygon points="382.98 172.04 409.1 139.22 454.93 225.95 491.16 225.95 428.86 114.4 485.29 43.52 448.87 43.52 383.92 126.24 382.98 126.24 382.98 43.52 350.15 43.52 350.15 225.95 382.98 225.95 382.98 172.04" fill="#272525"/>
  <polygon points="486.77 637.48 486.77 617.82 361.76 617.82 361.76 645.1 446.59 645.1 353.35 780.76 353.35 800.42 487.96 800.42 487.96 773.14 393.35 773.14 486.77 637.48" fill="#272525"/>
  <polygon points="162.57 358.9 162.57 331.61 45.6 331.61 45.6 514.04 165.36 514.04 165.36 486.76 78.05 486.76 78.05 432.84 149.64 432.84 149.64 405.55 78.05 405.55 78.05 358.9 162.57 358.9" fill="#272525"/>
  <path d="M640.96,514.04h33.21l14.12-49.28h60.66l13.94,49.28h34.54l-59.11-182.43h-38.26l-59.11,182.43ZM718.05,356.91h1.12c4.96,20.18,10.8,40.89,16.29,60.13l6.25,22.09h-46.07l6.33-22.09c5.5-19.24,10.95-39.95,16.09-60.13Z" fill="#272525"/>
</svg>